<mxfile host="app.diagrams.net" modified="2023-04-02T21:35:42.827Z" agent="Mozilla/5.0 (Windows NT 10.0; Win64; x64) AppleWebKit/537.36 (KHTML, like Gecko) Chrome/111.0.0.0 Safari/537.36" version="21.1.2" etag="ya8NtMm_EjDb3P-y0By2" type="github">
  <diagram name="Page-1" id="tQqIydU8IR7PAFqaYIty">
    <mxGraphModel>
      <root>
        <mxCell id="0" />
        <mxCell id="1" parent="0" />
      </root>
    </mxGraphModel>
  </diagram>
</mxfile>
